<?xml version="1.0" standalone="no"?>
<!DOCTYPE svg PUBLIC "-//W3C//DTD SVG 20010904//EN"
 "http://www.w3.org/TR/2001/REC-SVG-20010904/DTD/svg10.dtd">
<svg version="1.0" xmlns="http://www.w3.org/2000/svg"
 width="310.000000pt" height="310.000000pt" viewBox="0 0 310.000000 310.000000"
 preserveAspectRatio="xMidYMid meet">
<metadata>
Created by potrace 1.11, written by Peter Selinger 2001-2013
</metadata>
<g transform="translate(0.000000,310.000000) scale(0.100000,-0.100000)"
fill="#000000" stroke="none">
<path d="M0 1550 l0 -1550 1550 0 1550 0 0 1550 0 1550 -1550 0 -1550 0 0
-1550z m2835 483 l60 -19 3 -77 c2 -46 -1 -77 -7 -77 -6 0 -36 7 -68 15 -75
20 -249 19 -333 -1 -153 -36 -230 -122 -230 -258 0 -98 75 -194 186 -236 68
-26 213 -32 277 -11 l37 13 0 79 0 79 -120 0 -120 0 0 80 0 80 235 0 235 0 7
-27 c13 -46 9 -365 -4 -389 -14 -25 -86 -49 -208 -71 -109 -19 -329 -13 -420
11 -156 42 -258 120 -321 245 -26 50 -29 66 -29 151 0 85 3 101 29 152 72 143
222 243 414 278 80 15 309 4 377 -17z m-2057 -25 c48 -70 181 -313 243 -443
67 -141 149 -332 149 -346 0 -6 -52 -9 -137 -7 l-138 3 -25 70 -25 70 -227 3
-226 2 -27 -75 -28 -75 -139 0 -139 0 6 23 c14 45 110 265 163 372 60 122 153
286 214 383 l40 62 134 0 133 0 29 -42z m1219 -25 c-4 -38 -7 -78 -7 -90 l0
-23 -254 0 -254 0 -4 -72 c-3 -40 -3 -76 -1 -80 2 -5 74 -8 159 -8 l154 0 0
-80 0 -80 -161 0 -161 0 5 -22 c3 -13 7 -88 8 -168 l3 -145 -126 -3 -125 -3
-6 53 c-21 183 -14 742 9 779 3 5 174 9 386 9 l381 0 -6 -67z m483 -918 c0
-11 -11 -15 -39 -15 -38 0 -57 10 -44 24 3 3 24 6 45 6 27 0 38 -4 38 -15z
m-2029 -34 c18 -15 21 -22 13 -31 -9 -9 -17 -9 -33 0 -48 25 -95 -22 -66 -66
17 -26 35 -30 67 -13 15 8 23 8 32 -1 16 -17 -19 -40 -61 -40 -78 0 -112 94
-52 144 36 31 68 33 100 7z m1330 2 c16 -10 29 -21 29 -25 0 -16 -23 -20 -46
-8 -53 29 -100 -32 -58 -74 19 -19 25 -20 59 -4 19 9 28 9 37 0 17 -17 -19
-41 -63 -42 -65 0 -104 61 -75 118 27 53 66 65 117 35z m480 -2 c19 -16 21
-22 12 -32 -10 -10 -18 -10 -38 1 -28 15 -50 8 -69 -23 -8 -12 -8 -22 0 -34
19 -31 41 -38 67 -24 25 13 47 9 47 -10 0 -6 -12 -15 -27 -22 -16 -7 -28 -19
-28 -27 0 -9 -11 -16 -27 -18 -16 -2 -28 1 -28 7 0 6 8 11 18 11 12 1 6 9 -20
31 -32 26 -38 37 -38 67 1 76 76 118 131 73z m-1572 -1 c31 -16 46 -65 30
-101 -14 -35 -66 -63 -96 -52 -62 22 -84 95 -41 140 23 25 74 31 107 13z m193
-35 c7 -25 15 -45 19 -45 3 0 12 20 19 45 16 56 46 63 55 13 3 -18 9 -54 14
-81 6 -31 5 -50 -2 -54 -15 -9 -37 26 -38 61 0 29 -1 28 -17 -14 -21 -53 -41
-58 -56 -13 -16 45 -26 51 -26 16 0 -35 -26 -65 -35 -41 -3 8 -1 44 4 79 6 35
11 67 11 72 0 4 9 7 20 7 15 0 23 -11 32 -45z m238 -21 c0 -57 2 -65 18 -62
14 3 18 16 20 66 3 53 6 63 20 60 13 -2 18 -16 20 -52 4 -65 -4 -93 -29 -107
-52 -27 -89 17 -89 106 0 44 5 55 27 55 9 0 13 -18 13 -66z m239 19 l31 -48 0
48 c0 41 3 48 18 45 14 -3 18 -16 20 -77 4 -105 -20 -119 -68 -40 l-25 40 -5
-43 c-3 -29 -10 -43 -20 -43 -12 0 -16 16 -18 69 -2 38 -1 75 2 83 10 25 34
13 65 -34z m199 -35 c-2 -66 -6 -83 -18 -83 -12 0 -16 17 -18 83 -3 77 -2 82
18 82 20 0 21 -5 18 -82z m453 7 c15 -38 28 -76 28 -82 1 -20 -27 -15 -39 7
-6 12 -21 20 -35 20 -14 0 -29 -8 -35 -20 -11 -20 -40 -28 -40 -10 0 11 46
135 56 151 14 24 38 -1 65 -66z m465 18 c26 -57 41 -113 31 -113 -17 0 -37 14
-37 26 0 19 -59 18 -66 -1 -5 -12 -44 -23 -44 -12 0 2 14 40 49 130 17 43 39
33 67 -30z m253 47 c31 -16 46 -65 30 -101 -14 -35 -66 -63 -96 -52 -62 22
-84 95 -41 140 23 25 74 31 107 13z"/>
<path d="M536 1691 c-42 -82 -76 -153 -76 -157 0 -5 70 -9 155 -9 85 0 155 1
155 3 0 7 -120 252 -137 280 l-20 33 -77 -150z"/>
<path d="M612 998 c-7 -7 -12 -24 -12 -38 0 -52 48 -68 76 -25 15 23 15 27 0
50 -18 27 -45 32 -64 13z"/>
<path d="M1956 965 c-3 -9 0 -15 9 -15 9 0 12 6 9 15 -4 8 -7 15 -9 15 -2 0
-5 -7 -9 -15z"/>
<path d="M2426 965 c-3 -9 0 -15 9 -15 16 0 20 16 6 24 -5 3 -11 -1 -15 -9z"/>
<path d="M2652 998 c-7 -7 -12 -24 -12 -38 0 -52 48 -68 76 -25 15 23 15 27 0
50 -18 27 -45 32 -64 13z"/>
</g>
</svg>
