<?xml version="1.0" encoding="utf-8"?>
<!-- Generator: Adobe Illustrator 21.0.0, SVG Export Plug-In . SVG Version: 6.00 Build 0)  -->
<svg version="1.1" id="Camada_1" xmlns="http://www.w3.org/2000/svg" xmlns:xlink="http://www.w3.org/1999/xlink" x="0px" y="0px"
	 viewBox="0 0 115.1 47.6" style="enable-background:new 0 0 115.1 47.6;" xml:space="preserve">
<style type="text/css">
	.st0{fill:#32D6C8;}
	.st1{fill:#04244D;}
</style>
<path class="st0" d="M0,33.1h10.5c0.2,0,0.5-1.1,0.6-1.5s1.4-3.9,1.6-4.2L13,27h17.2c0.2,0,0.3,0.3,0.4,0.6c0.9,2.2,1.3,3.2,2,5.4
	h10.7l-0.9-2.2c-0.6-1.5-1.3-3-1.8-4.3c-0.2-0.4-0.3-0.7-0.5-1.1c-0.5-1.2-1.3-3-1.9-4.2c-1.3-2.9-2.7-5.4-4.1-8.3l-3.3-6
	c-0.7-1.2-1.9-3.1-2.6-4.3c-0.1-0.2-0.2-0.3-0.3-0.5c-0.4-0.6-0.8-1.3-1.3-1.8h-10c-0.2,0-0.5,0.6-0.7,0.8L15.3,2l-1.8,3
	c-0.2,0.3-0.4,0.7-0.6,1c-0.4,0.6-0.7,1.3-1.1,1.9c-0.2,0.3-0.3,0.7-0.5,1c-0.6,0.9-1.7,3-2.2,4C9,13.1,9,13.2,8.9,13.4
	s-0.2,0.3-0.3,0.5C7.8,15.5,7,17,6.3,18.5L5,21.2c-0.6,1.3-1.3,2.8-1.9,4.2C2.6,26.5,0,32.5,0,33.1 M21.6,8.2h0.1
	c0.1,0.3,1,1.9,1.2,2.3c0.6,1.1,1.3,2.4,1.8,3.5l1.7,3.6c0.3,0.5,0.5,1.1,0.8,1.6L28,21H15.3c0-0.3,1.3-3,1.5-3.3l0.6-1.2l2.6-5.2
	c0.1-0.3,0.3-0.5,0.4-0.8s0.3-0.5,0.4-0.8C20.9,9.5,21,9.3,21.2,9C21.3,8.8,21.5,8.5,21.6,8.2z M45.9,33.1h9.7l-0.3-9.2
	c0-1.5-0.1-4-0.1-4.2h12.4v-6.2H55.2l0.1-3.6c0-0.3,0.1-0.4,0.1-0.7c0-0.9,0-1.3,0.1-2.2h19.9c0-1.6,0.3-4.8,0.4-6.6H45.9
	c-0.1,0.6-0.2,1.3-0.2,2c0,0.8-0.2,2.1-0.2,3l-0.2,4c0,0.4,0,2.4-0.1,3.1l-0.1,4.2c0,0.8,0.1,1.3,0.1,2.1c0,0.6-0.1,1.6,0,2.1
	s0.1,3.5,0.2,4.2c0.1,0.9,0.1,3.1,0.3,4c0,0.3,0.1,0.8,0.1,1C45.8,30.1,45.9,33.1,45.9,33.1z M114.3,14h-13.5h-4.6v6.2h9.3v6.4
	c-3,1.1-10.2,2.2-15.7-1.6c-2.5-2.4-3.9-4.3-4.1-7.7c0-8.9,8.6-10.9,15.9-10.9c3.6,0,6.2,0.4,9.2,1.5V2.2l-0.1-0.3
	c-7.2-3.2-24.8-3.5-32,7.4c-3.8,5.8-3.1,12.5,1.3,17.4c6.6,8.7,25.9,8.1,34.4,4.1c0.5-2.9,0.8-5.7,0.8-8.6
	C115.1,19.4,114.8,16.7,114.3,14L114.3,14z"/>
<path class="st1" d="M102.2,40.9c-0.6,0-1,0.2-1.4,0.6c-0.4,0.4-0.6,0.9-0.6,1.5c0,0.7,0.2,1.2,0.7,1.6c0.4,0.3,0.8,0.5,1.3,0.5
	s1-0.2,1.4-0.6c0.4-0.4,0.6-0.9,0.6-1.5s-0.2-1.1-0.6-1.5C103.3,41.1,102.8,40.9,102.2,40.9 M102.3,39.8c0.9,0,1.6,0.3,2.2,0.9
	c0.6,0.6,0.9,1.4,0.9,2.3c0,0.9-0.3,1.6-0.9,2.2c-0.6,0.6-1.3,0.9-2.2,0.9c-0.9,0-1.7-0.3-2.3-0.9c-0.6-0.6-0.9-1.4-0.9-2.2
	c0-0.6,0.1-1.1,0.4-1.6s0.7-0.9,1.2-1.2S101.7,39.8,102.3,39.8z M91.5,39.5L91,38.8c0.4-0.3,0.7-0.4,1.1-0.4c0.1,0,0.4,0,0.7,0.1
	c0.2,0.1,0.4,0.1,0.5,0.1c0.2,0,0.5-0.1,0.7-0.2l0.4,0.6c-0.3,0.3-0.7,0.4-1,0.4c-0.2,0-0.4,0-0.6-0.1s-0.3-0.1-0.4-0.1h-0.3
	C92,39.2,91.7,39.3,91.5,39.5z M92.8,41.6l-0.8,2h1.6C93.6,43.6,92.8,41.6,92.8,41.6z M92.2,39.9h1.2l2.3,6.1h-1.2L94,44.8h-2.5
	L91,46h-1.2C89.8,46,92.2,39.9,92.2,39.9z M83.2,45.9h0.7v0.2c0.2,0,0.3,0.1,0.4,0.2c0.1,0.1,0.2,0.3,0.2,0.4c0,0.2-0.1,0.4-0.3,0.6
	c-0.2,0.2-0.4,0.2-0.8,0.2c-0.3,0-0.6-0.1-0.9-0.2l0.1-0.5c0.2,0.1,0.4,0.1,0.6,0.1c0.1,0,0.2,0,0.3-0.1c0.1-0.1,0.1-0.1,0.1-0.2
	s0-0.1-0.1-0.2c-0.1,0-0.1-0.1-0.2-0.1h-0.2C83.1,46.3,83.2,45.9,83.2,45.9z M86.5,41l-0.8,0.8c-0.6-0.6-1.2-0.9-1.9-0.9
	c-0.6,0-1.1,0.2-1.5,0.6c-0.4,0.4-0.6,0.9-0.6,1.5c0,0.4,0.1,0.8,0.3,1.1c0.2,0.3,0.4,0.6,0.7,0.7c0.3,0.2,0.7,0.3,1.1,0.3
	c0.3,0,0.6-0.1,0.9-0.2c0.3-0.1,0.6-0.4,0.9-0.7l0.8,0.8c-0.4,0.4-0.9,0.7-1.3,0.9s-0.9,0.3-1.4,0.3c-0.9,0-1.7-0.3-2.3-0.9
	c-0.6-0.6-0.9-1.4-0.9-2.3c0-0.6,0.1-1.1,0.4-1.6s0.7-0.8,1.2-1.1s1.1-0.4,1.6-0.4s1,0.1,1.4,0.3C85.8,40.3,86.2,40.6,86.5,41z
	 M74.3,41.6l-0.8,2.1h1.6C75.1,43.7,74.3,41.6,74.3,41.6z M73.7,39.9h1.2l2.3,6.1H76l-0.5-1.2H73L72.6,46h-1.2L73.7,39.9z M68.1,41
	l-0.8,0.8c-0.6-0.6-1.2-0.9-1.9-0.9c-0.6,0-1.1,0.2-1.5,0.6c-0.4,0.4-0.6,0.9-0.6,1.5c0,0.4,0.1,0.8,0.3,1.1s0.4,0.6,0.7,0.7
	c0.3,0.2,0.7,0.3,1.1,0.3c0.3,0,0.6-0.1,0.9-0.2c0.3-0.1,0.6-0.4,0.9-0.7L68,45c-0.4,0.4-0.9,0.7-1.3,0.9s-0.9,0.3-1.4,0.3
	c-0.9,0-1.7-0.3-2.3-0.9c-0.6-0.6-0.9-1.4-0.9-2.3c0-0.6,0.1-1.1,0.4-1.6c0.3-0.5,0.7-0.8,1.2-1.1s1.1-0.4,1.6-0.4s1,0.1,1.4,0.3
	C67.3,40.3,67.7,40.6,68.1,41z M57.3,39.9h1.1V46h-1.1V39.9z M48.3,39.9h1.1l2.6,4v-4h1.2V46H52l-2.6-4v4h-1.2L48.3,39.9L48.3,39.9z
	 M40,39.9h1.2v3.9c0,0.3,0,0.6,0.1,0.7c0.1,0.1,0.2,0.3,0.3,0.3c0.1,0.1,0.3,0.1,0.5,0.1s0.4,0,0.5-0.1s0.2-0.2,0.3-0.4
	C43,44.3,43,44,43,43.6v-3.8h1.2v3.6c0,0.6,0,1-0.1,1.3c-0.1,0.2-0.2,0.5-0.4,0.7s-0.4,0.4-0.7,0.5s-0.5,0.2-0.9,0.2
	S41.3,46,41,45.8s-0.6-0.5-0.7-0.8c-0.1-0.3-0.2-0.8-0.2-1.5L40,39.9L40,39.9z M30.2,39.9h1.1l1.4,4.2l1.4-4.2h1.1l1,6.1h-1.1
	l-0.7-3.8L33.3,46h-1L31,42.2L30.3,46h-1.1C29.2,46,30.2,39.9,30.2,39.9z M22.6,40.9c-0.6,0-1,0.2-1.4,0.6c-0.4,0.4-0.6,0.9-0.6,1.5
	c0,0.7,0.2,1.2,0.7,1.6c0.4,0.3,0.8,0.5,1.3,0.5s1-0.2,1.4-0.6c0.4-0.4,0.6-0.9,0.6-1.5s-0.2-1.1-0.6-1.5S23.2,40.9,22.6,40.9z
	 M22.6,39.8c0.9,0,1.6,0.3,2.2,0.9c0.6,0.6,0.9,1.4,0.9,2.3c0,0.9-0.3,1.6-0.9,2.2c-0.6,0.6-1.3,0.9-2.2,0.9c-0.9,0-1.7-0.3-2.3-0.9
	c-0.6-0.6-0.9-1.4-0.9-2.2c0-0.6,0.1-1.1,0.4-1.6s0.7-0.9,1.2-1.2S22.1,39.8,22.6,39.8z M15.9,41l-0.8,0.8c-0.5-0.6-1.2-0.9-1.9-0.9
	c-0.6,0-1.1,0.2-1.5,0.6c-0.4,0.4-0.6,0.9-0.6,1.5c0,0.4,0.1,0.8,0.3,1.1s0.4,0.6,0.7,0.7c0.3,0.2,0.7,0.3,1.1,0.3
	c0.3,0,0.6-0.1,0.9-0.2c0.3-0.1,0.6-0.4,0.9-0.7l0.8,0.8c-0.4,0.4-0.9,0.7-1.3,0.9c-0.4,0.2-0.9,0.3-1.4,0.3c-0.9,0-1.7-0.3-2.3-0.9
	c-0.6-0.6-0.9-1.4-0.9-2.3c0-0.6,0.1-1.1,0.4-1.6c0.3-0.5,0.7-0.8,1.2-1.1s1.1-0.4,1.6-0.4s1,0.1,1.4,0.3
	C15.2,40.3,15.6,40.6,15.9,41z"/>
</svg>
