<?xml version="1.0" encoding="utf-8"?>
<!-- Generator: Adobe Illustrator 21.0.0, SVG Export Plug-In . SVG Version: 6.00 Build 0)  -->
<svg version="1.1" id="Camada_1" xmlns="http://www.w3.org/2000/svg" xmlns:xlink="http://www.w3.org/1999/xlink" x="0px" y="0px"
	 viewBox="0 0 101.6 42" style="enable-background:new 0 0 101.6 42;" xml:space="preserve">
<style type="text/css">
	.st0{fill:#32D6C8;}
	.st1{fill:#FFFFFF;}
</style>
<g>
	<path class="st0" d="M0,29.2h9.3c0.2,0,0.5-1,0.6-1.3c0.1-0.4,1.3-3.4,1.5-3.7l0.2-0.3h15.2c0.2,0,0.2,0.3,0.3,0.5
		c0.8,1.9,1.1,2.9,1.8,4.8h9.4l-0.8-2c-0.5-1.3-1.1-2.6-1.6-3.8c-0.1-0.3-0.3-0.6-0.4-0.9c-0.4-1-1.2-2.7-1.7-3.7
		c-1.2-2.6-2.3-4.8-3.6-7.3l-2.9-5.3c-0.6-1-1.6-2.8-2.3-3.8c-0.1-0.2-0.2-0.2-0.3-0.4c-0.3-0.6-0.7-1.1-1.1-1.6h-8.9
		c-0.1,0-0.4,0.5-0.6,0.7c-0.2,0.3-0.3,0.5-0.5,0.8L12,4.4c-0.2,0.3-0.3,0.6-0.5,0.9c-0.3,0.6-0.7,1.1-1,1.7
		c-0.2,0.3-0.3,0.6-0.5,0.9c-0.5,0.8-1.5,2.7-2,3.5c-0.1,0.2-0.1,0.3-0.2,0.4c-0.1,0.2-0.2,0.3-0.2,0.4c-0.7,1.3-1.4,2.7-2.1,4.1
		l-1.1,2.3c-0.5,1.2-1.2,2.5-1.7,3.7C2.3,23.4,0,28.7,0,29.2 M19,7.3h0.1c0.1,0.2,0.9,1.7,1.1,2c0.5,1,1.1,2.1,1.6,3.1l1.5,3.2
		c0.2,0.5,0.5,0.9,0.7,1.4l0.7,1.5H13.5c0-0.3,1.2-2.6,1.3-2.9l0.5-1.1l2.3-4.5c0.1-0.3,0.2-0.4,0.4-0.7c0.1-0.3,0.2-0.4,0.4-0.7
		c0.1-0.3,0.2-0.4,0.4-0.7C18.8,7.7,19,7.5,19,7.3z M40.5,29.2H49l-0.3-8.1l0,0c0-1.3-0.1-3.6-0.1-3.7h11V12h-11l0.1-3.2
		c0-0.3,0.1-0.3,0.1-0.6c0-0.8,0-1.1,0.1-1.9h17.5c0-1.4,0.3-4.2,0.4-5.8H40.5c0,0.5-0.1,1.2-0.2,1.7c0,0.7-0.2,1.9-0.2,2.6
		l-0.2,3.6c0,0.4,0,2.2-0.1,2.7l-0.1,3.8c0,0.7,0.1,1.2,0.1,1.8c0,0.5-0.1,1.4,0,1.9s0.1,3.1,0.1,3.7c0.1,0.8,0.1,2.7,0.2,3.5
		c0,0.2,0.1,0.7,0.1,0.9L40.5,29.2z M100.9,12.4H89h-0.1h-4v5.4h8.2v5.7c-2.7,1-9,1.9-13.9-1.4c-2.2-2.2-3.5-3.8-3.6-6.8
		c0-7.9,7.6-9.7,14-9.7c3.2,0,5.5,0.4,8.1,1.3v-5l-0.1-0.2c-6.4-2.8-21.9-3.1-28.2,6.5c-3.4,5.1-2.7,11,1.1,15.3
		c5.8,7.7,22.9,7.1,30.4,3.6c0.5-2.5,0.7-5.1,0.7-7.6C101.6,17.2,101.4,14.8,100.9,12.4z"/>
	<path class="st1" d="M90.3,36.1c-0.5,0-0.9,0.2-1.2,0.5c-0.3,0.3-0.5,0.8-0.5,1.3c0,0.6,0.2,1.1,0.6,1.4c0.3,0.3,0.7,0.4,1.1,0.4
		c0.5,0,0.9-0.2,1.2-0.5c0.3-0.4,0.5-0.8,0.5-1.3s-0.2-0.9-0.5-1.3C91.2,36.3,90.7,36.1,90.3,36.1 M90.3,35.1c0.8,0,1.4,0.3,2,0.8
		c0.5,0.5,0.8,1.2,0.8,2s-0.3,1.4-0.8,2c-0.5,0.5-1.2,0.8-2,0.8s-1.5-0.3-2-0.8c-0.5-0.6-0.8-1.2-0.8-2c0-0.5,0.1-1,0.4-1.4
		c0.2-0.4,0.6-0.8,1-1C89.3,35.3,89.8,35.1,90.3,35.1z M80.8,34.8l-0.4-0.6c0.3-0.2,0.6-0.4,0.9-0.4c0.1,0,0.3,0,0.6,0.1
		c0.2,0.1,0.4,0.1,0.5,0.1c0.2,0,0.4-0.1,0.6-0.2l0.4,0.6c-0.3,0.3-0.6,0.4-0.9,0.4c-0.2,0-0.3,0-0.5-0.1s-0.3-0.1-0.3-0.1
		c-0.1,0-0.1,0-0.2,0C81.2,34.6,81,34.7,80.8,34.8z M81.9,36.7l-0.7,1.8h1.4L81.9,36.7z M81.4,35.3h1l2.1,5.4h-1.1L83,39.5h-2.2
		l-0.4,1.1h-1.1L81.4,35.3z M73.4,40.6H74v0.2c0.2,0,0.3,0.1,0.4,0.2c0.1,0.1,0.1,0.2,0.1,0.3c0,0.2-0.1,0.4-0.2,0.5
		c-0.2,0.1-0.4,0.2-0.7,0.2c-0.2,0-0.5-0.1-0.8-0.2l0.1-0.5c0.2,0.1,0.3,0.1,0.5,0.1c0.1,0,0.2,0,0.3-0.1c0.1,0,0.1-0.1,0.1-0.2
		c0-0.1,0-0.1-0.1-0.1c0,0-0.1-0.1-0.2-0.1h-0.2L73.4,40.6z M76.4,36.2l-0.7,0.7c-0.5-0.5-1-0.8-1.6-0.8c-0.5,0-0.9,0.2-1.3,0.5
		s-0.5,0.8-0.5,1.3c0,0.4,0.1,0.7,0.2,0.9c0.2,0.3,0.4,0.5,0.7,0.7c0.3,0.2,0.6,0.2,0.9,0.2s0.6-0.1,0.8-0.2
		c0.2-0.1,0.5-0.3,0.8-0.6l0.7,0.7c-0.4,0.4-0.8,0.7-1.1,0.8c-0.4,0.1-0.8,0.2-1.2,0.2c-0.8,0-1.5-0.3-2-0.8s-0.8-1.2-0.8-2
		c0-0.5,0.1-1,0.4-1.4c0.2-0.4,0.6-0.7,1-1s0.9-0.4,1.5-0.4c0.4,0,0.9,0.1,1.3,0.3C75.7,35.6,76.1,35.9,76.4,36.2z M65.6,36.7
		l-0.7,1.8h1.4L65.6,36.7z M65.1,35.3h1l2.1,5.4h-1.1l-0.4-1.1h-2.2l-0.4,1.1H63L65.1,35.3z M60.1,36.2l-0.7,0.7
		c-0.5-0.5-1-0.8-1.6-0.8c-0.5,0-0.9,0.2-1.3,0.5c-0.4,0.3-0.5,0.8-0.5,1.3c0,0.4,0.1,0.7,0.2,0.9c0.2,0.3,0.4,0.5,0.7,0.7
		s0.6,0.2,0.9,0.2c0.3,0,0.6-0.1,0.8-0.2c0.2-0.1,0.5-0.3,0.8-0.6l0.7,0.7c-0.4,0.4-0.8,0.7-1.1,0.8c-0.4,0.1-0.8,0.2-1.2,0.2
		c-0.8,0-1.5-0.3-2-0.8s-0.8-1.2-0.8-2c0-0.5,0.1-1,0.4-1.4c0.2-0.4,0.6-0.7,1-1s0.9-0.4,1.5-0.4c0.4,0,0.9,0.1,1.3,0.3
		C59.4,35.6,59.8,35.9,60.1,36.2z M50.5,35.3h1v5.4h-1V35.3z M42.6,35.3h1l2.3,3.5v-3.5h1v5.4h-1l-2.3-3.5v3.5h-1V35.3z M35.3,35.3
		h1v3.5c0,0.3,0,0.5,0.1,0.6s0.1,0.2,0.3,0.3c0.1,0.1,0.3,0.1,0.4,0.1c0.2,0,0.3,0,0.5-0.1c0.1-0.1,0.2-0.2,0.3-0.3
		c0-0.1,0.1-0.4,0.1-0.7v-3.3h1v3.2c0,0.5,0,0.9-0.1,1.1c-0.1,0.2-0.2,0.4-0.3,0.6c-0.2,0.2-0.4,0.3-0.6,0.4
		c-0.2,0.1-0.5,0.1-0.8,0.1c-0.4,0-0.7-0.1-1-0.3s-0.5-0.4-0.6-0.7s-0.2-0.7-0.2-1.4v-3.1H35.3z M26.7,35.3h1l1.2,3.7l1.3-3.7h1
		l0.9,5.4h-1l-0.6-3.4l-1.1,3.4h-0.9l-1.1-3.4l-0.6,3.4h-1L26.7,35.3z M20,36.1c-0.5,0-0.9,0.2-1.2,0.5c-0.3,0.3-0.5,0.8-0.5,1.3
		c0,0.6,0.2,1.1,0.6,1.4c0.3,0.3,0.7,0.4,1.1,0.4c0.5,0,0.9-0.2,1.2-0.5c0.3-0.4,0.5-0.8,0.5-1.3s-0.2-0.9-0.5-1.3
		C20.9,36.3,20.5,36.1,20,36.1z M20,35.1c0.8,0,1.4,0.3,2,0.8c0.5,0.5,0.8,1.2,0.8,2s-0.3,1.4-0.8,2c-0.5,0.5-1.2,0.8-2,0.8
		s-1.5-0.3-2-0.8c-0.5-0.6-0.8-1.2-0.8-2c0-0.5,0.1-1,0.4-1.4c0.2-0.4,0.6-0.8,1-1C19,35.3,19.5,35.1,20,35.1z M14.1,36.2l-0.7,0.7
		c-0.5-0.5-1-0.8-1.6-0.8c-0.5,0-0.9,0.2-1.3,0.5c-0.4,0.3-0.5,0.8-0.5,1.3c0,0.4,0.1,0.7,0.2,0.9c0.2,0.3,0.4,0.5,0.7,0.7
		s0.6,0.2,0.9,0.2c0.3,0,0.6-0.1,0.8-0.2c0.2-0.1,0.5-0.3,0.8-0.6l0.7,0.7c-0.4,0.4-0.8,0.7-1.1,0.8c-0.4,0.1-0.8,0.2-1.2,0.2
		c-0.8,0-1.5-0.3-2-0.8S9,38.6,9,37.8c0-0.5,0.1-1,0.4-1.4c0.2-0.4,0.6-0.7,1-1s0.9-0.4,1.5-0.4c0.4,0,0.9,0.1,1.3,0.3
		C13.4,35.6,13.8,35.9,14.1,36.2z"/>
</g>
</svg>
