<svg xmlns="http://www.w3.org/2000/svg" viewBox="0 0 13.2 11"><path fill="#04244D" d="M1.1 1.1h11v.5c0 .2 0 .3-.1.5-.2.5-.5 1-.9 1.2L8.2 5.4l-.8.6c-.3.2-.6.4-.8.4-.1 0-.3 0-.4-.1-.2-.2-.5-.3-.9-.6L3.8 4.5 2.2 3.3c-.3-.2-.5-.5-.8-.8-.2-.4-.3-.7-.3-.9v-.5zm0 8.8V3.8c.2.2.3.3.4.3 1.7 1.2 2.7 2 3 2.3.2.2.6.4 1 .7.3.2.7.3 1.1.3.4 0 .8-.1 1.1-.3.3-.2.7-.5.9-.7.8-.6 1.8-1.4 3-2.3.1-.1.3-.2.4-.3v6.1H1.1zM12.4 11c.2 0 .4-.1.6-.2.2-.2.2-.4.2-.6V.8c0-.2-.1-.4-.2-.6-.2-.1-.4-.2-.6-.2H.8C.6 0 .4.1.2.2.1.4 0 .6 0 .8v9.4c0 .2.1.4.2.6.2.1.4.2.6.2h11.6z"/></svg>