<?xml version="1.0" encoding="utf-8"?>
<!-- Generator: Adobe Illustrator 18.1.1, SVG Export Plug-In . SVG Version: 6.00 Build 0)  -->
<svg version="1.1" id="Camada_1" xmlns="http://www.w3.org/2000/svg" xmlns:xlink="http://www.w3.org/1999/xlink" x="0px" y="0px"
	 viewBox="0 0 7.7 13" enable-background="new 0 0 7.7 13" xml:space="preserve">
<path fill="#92A1AF" d="M1.1,1.7h5.6v8.8H1.1V1.7z M3.2,12.3C3,12.1,2.9,12,2.9,11.8c0-0.2,0.1-0.3,0.3-0.5c0.2-0.1,0.4-0.2,0.6-0.2
	c0.2,0,0.5,0.1,0.7,0.2c0.2,0.1,0.3,0.3,0.3,0.5c0,0.2-0.1,0.4-0.3,0.5c-0.2,0.1-0.4,0.2-0.6,0.2C3.6,12.5,3.4,12.4,3.2,12.3 M1.3,0
	C1,0,0.7,0.1,0.4,0.4C0.1,0.7,0,1,0,1.3v10.3c0,0.4,0.1,0.7,0.4,0.9C0.7,12.9,1,13,1.3,13h5c0.4,0,0.7-0.1,0.9-0.4
	c0.3-0.3,0.4-0.6,0.4-0.9V1.3c0-0.4-0.1-0.7-0.4-0.9C7.1,0.1,6.7,0,6.4,0H1.3z"/>
</svg>
