<?xml version="1.0" encoding="utf-8"?>
<!-- Generator: Adobe Illustrator 18.1.1, SVG Export Plug-In . SVG Version: 6.00 Build 0)  -->
<svg version="1.1" id="Camada_1" xmlns="http://www.w3.org/2000/svg" xmlns:xlink="http://www.w3.org/1999/xlink" x="0px" y="0px"
	 viewBox="0 0 13.2 11" enable-background="new 0 0 13.2 11" xml:space="preserve">
<path fill="#92A1AF" d="M1.1,1.1h11v0.5c0,0.2,0,0.3-0.1,0.5c-0.2,0.5-0.5,1-0.9,1.2L8.2,5.4L7.4,6C7.1,6.2,6.8,6.4,6.6,6.4h0
	c-0.1,0-0.3,0-0.4-0.1C6,6.1,5.7,6,5.3,5.7L3.8,4.5L2.2,3.3C1.9,3.1,1.7,2.8,1.4,2.5C1.2,2.1,1.1,1.8,1.1,1.6V1.1z M1.1,9.9V3.8
	C1.3,4,1.4,4.1,1.5,4.1c1.7,1.2,2.7,2,3,2.3c0.2,0.2,0.6,0.4,1,0.7c0.3,0.2,0.7,0.3,1.1,0.3c0.4,0,0.8-0.1,1.1-0.3
	c0.3-0.2,0.7-0.5,0.9-0.7c0.8-0.6,1.8-1.4,3-2.3c0.1-0.1,0.3-0.2,0.4-0.3v6.1H1.1z M12.4,11c0.2,0,0.4-0.1,0.6-0.2
	c0.2-0.2,0.2-0.4,0.2-0.6V0.8c0-0.2-0.1-0.4-0.2-0.6C12.8,0.1,12.6,0,12.4,0H0.8C0.6,0,0.4,0.1,0.2,0.2C0.1,0.4,0,0.6,0,0.8v9.4
	c0,0.2,0.1,0.4,0.2,0.6C0.4,10.9,0.6,11,0.8,11H12.4z"/>
</svg>
