<?xml version="1.0" encoding="utf-8"?>
<!-- Generator: Adobe Illustrator 18.1.1, SVG Export Plug-In . SVG Version: 6.00 Build 0)  -->
<svg version="1.1" id="Camada_1" xmlns="http://www.w3.org/2000/svg" xmlns:xlink="http://www.w3.org/1999/xlink" x="0px" y="0px"
	 viewBox="0 0 8.1 13" enable-background="new 0 0 8.1 13" xml:space="preserve">
<path fill="#92A1AF" d="M1.9,4.1c0-0.6,0.2-1.1,0.6-1.5C3,2.1,3.5,1.9,4.1,1.9c0.6,0,1.1,0.2,1.6,0.6C6.1,3,6.3,3.5,6.3,4.1
	c0,0.6-0.2,1.1-0.7,1.6c-0.4,0.4-1,0.7-1.6,0.7C3.5,6.3,3,6.1,2.5,5.7C2.1,5.2,1.9,4.7,1.9,4.1 M1.2,1.2C0.4,2,0,2.9,0,4.1
	c0,1.4,0.5,3,1.4,4.8c0.3,0.7,0.8,1.4,1.3,2.2c0.5,0.8,1,1.4,1.3,1.9l1-1.4c0.7-0.9,1.4-2.1,2-3.6c0.7-1.5,1-2.8,1-3.9
	c0-1.1-0.4-2.1-1.2-2.9C6.1,0.4,5.2,0,4.1,0C2.9,0,2,0.4,1.2,1.2"/>
</svg>
