<?xml version="1.0" encoding="utf-8"?>
<!-- Generator: Adobe Illustrator 21.0.0, SVG Export Plug-In . SVG Version: 6.00 Build 0)  -->
<svg version="1.1" id="Camada_1" xmlns="http://www.w3.org/2000/svg" xmlns:xlink="http://www.w3.org/1999/xlink" x="0px" y="0px"
	 viewBox="0 0 54.5 54.5" style="enable-background:new 0 0 54.5 54.5;" xml:space="preserve">
<style type="text/css">
	.st0{fill:#31D5C7;}
</style>
<g>
	<path class="st0" d="M51.7,20.8l-3.5-0.6c-0.3-1-0.7-1.9-1.2-2.8l2-2.8c1.1-1.3,1-3.2-0.2-4.3l-4.5-4.5c-0.6-0.6-1.4-0.9-2.3-0.9
		c-0.7,0-1.5,0.3-2,0.7l-2.9,2.1c-0.9-0.5-1.9-0.9-2.8-1.2l-0.6-3.4C33.5,1.2,32.1,0,30.5,0H24c-1.6,0-3,1.3-3.2,2.8l-0.6,3.5
		c-1,0.3-1.9,0.7-2.9,1.2l-2.8-2c-1.2-1-3.2-0.9-4.3,0.2l-4.5,4.5c-1.2,1.2-1.3,3-0.3,4.2l2.1,2.9c-0.5,0.9-0.9,1.9-1.2,2.8
		l-3.4,0.6C1.2,21,0,22.4,0,24v6.4c0,1.7,1.2,3,2.8,3.2l3.5,0.6c0.3,1,0.7,1.9,1.2,2.8l-2,2.8c-1.1,1.3-1,3.1,0.2,4.3l4.5,4.5
		c0.6,0.6,1.4,0.9,2.3,0.9c0.7,0,1.5-0.3,2-0.7l2.9-2.1c0.9,0.5,1.9,0.9,2.9,1.2l0.6,3.4c0.2,1.7,1.6,2.9,3.2,2.9h6.4
		c1.6,0,3-1.3,3.2-2.8l0.6-3.5c1-0.3,1.9-0.7,2.8-1.2l2.8,2c1.2,1,3.2,0.9,4.3-0.2l4.5-4.5c1.2-1.2,1.3-3,0.3-4.2L47,37.1
		c0.5-0.9,0.9-1.9,1.2-2.9l3.4-0.6c1.7-0.2,2.9-1.5,2.9-3.2V24C54.5,22.4,53.2,21,51.7,20.8z M45.3,32.4c-0.4,1.4-1,2.8-1.7,4.1
		c-0.3,0.5-0.3,1.2,0.1,1.7l2.7,3.8L42,46.5l-3.8-2.7c-0.5-0.4-1.2-0.4-1.7-0.1c-1.3,0.7-2.6,1.3-4.1,1.7c-0.6,0.2-1.1,0.7-1.2,1.3
		l-0.7,4.6l-6.4-0.1l-0.8-4.5c-0.1-0.6-0.6-1.1-1.2-1.3c-1.4-0.4-2.8-1-4.1-1.7c-0.2-0.1-0.5-0.2-0.8-0.2c-0.3,0-0.7,0.1-0.9,0.3
		l-3.8,2.7L8,42l2.7-3.8c0.4-0.5,0.4-1.2,0.1-1.7c-0.7-1.3-1.3-2.6-1.7-4.1c-0.2-0.6-0.7-1.1-1.3-1.2l-4.6-0.7l0.1-6.4l4.5-0.8
		c0.6-0.1,1.1-0.6,1.3-1.2c0.4-1.4,1-2.8,1.7-4.1c0.3-0.6,0.3-1.2-0.1-1.7L8,12.5L12.5,8l3.8,2.7c0.5,0.4,1.2,0.4,1.7,0.1
		c1.3-0.7,2.6-1.3,4.1-1.7c0.6-0.2,1.1-0.7,1.2-1.3L24,3.3l6.4,0l0.8,4.6c0.1,0.6,0.6,1.1,1.2,1.3c1.4,0.4,2.8,1,4.1,1.7
		c0.5,0.3,1.2,0.3,1.7-0.1L42,8l4.5,4.6l-2.7,3.7c-0.4,0.5-0.4,1.2-0.1,1.7c0.7,1.3,1.3,2.6,1.7,4.1c0.2,0.6,0.7,1.1,1.3,1.2
		l4.6,0.7l-0.1,6.4l-4.5,0.8C46,31.3,45.5,31.8,45.3,32.4z"/>
	<path class="st0" d="M27.3,16c-6.2,0-11.2,5-11.2,11.2c0,6.2,5,11.2,11.2,11.2s11.2-5,11.2-11.2C38.5,21.1,33.4,16,27.3,16z
		 M27.3,35.2c-4.4,0-8-3.6-8-8c0-4.4,3.6-8,8-8c4.4,0,8,3.6,8,8C35.2,31.7,31.7,35.2,27.3,35.2z"/>
</g>
</svg>
