<?xml version="1.0" encoding="iso-8859-1"?>
<!-- Generator: Adobe Illustrator 21.0.0, SVG Export Plug-In . SVG Version: 6.00 Build 0)  -->
<svg version="1.1" id="Camada_1" xmlns="http://www.w3.org/2000/svg" xmlns:xlink="http://www.w3.org/1999/xlink" x="0px" y="0px"
	 viewBox="0 0 56 37" style="enable-background:new 0 0 56 37;" xml:space="preserve">
<g>
	<path style="fill:#31D5C7;" d="M49.841,5.088c-3.396,0-6.159,2.763-6.159,6.159c0,1.122,0.305,2.214,0.883,3.172l-6.056,6.057
		c-0.958-0.579-2.05-0.883-3.173-0.883c-1.166,0-2.294,0.326-3.276,0.946l-6.119-6.12c0.578-0.958,0.883-2.05,0.883-3.172
		c0-3.396-2.763-6.159-6.159-6.159s-6.159,2.763-6.159,6.159c0,1.122,0.305,2.214,0.883,3.172l-6.057,6.057
		c-0.958-0.578-2.05-0.883-3.172-0.883C2.763,19.593,0,22.356,0,25.753c0,3.396,2.763,6.159,6.159,6.159
		c3.396,0,6.159-2.763,6.159-6.159c0-1.122-0.305-2.214-0.883-3.173l6.057-6.056c0.958,0.579,2.05,0.883,3.173,0.883
		c1.122,0,2.214-0.305,3.172-0.883l6.161,6.162c-0.538,0.932-0.821,1.988-0.821,3.067c0,3.396,2.763,6.159,6.159,6.159
		s6.159-2.763,6.159-6.159c0-1.122-0.305-2.214-0.883-3.172l6.057-6.057c0.958,0.578,2.05,0.883,3.172,0.883
		c3.396,0,6.159-2.763,6.159-6.159C56,7.851,53.237,5.088,49.841,5.088z M9.343,25.753c0,1.755-1.428,3.184-3.184,3.184
		c-1.755,0-3.184-1.428-3.184-3.184s1.428-3.184,3.184-3.184C7.915,22.569,9.343,23.997,9.343,25.753z M23.848,11.247
		c0,1.756-1.428,3.184-3.184,3.184c-1.756,0-3.184-1.428-3.184-3.184c0-1.755,1.428-3.184,3.184-3.184
		C22.42,8.064,23.848,9.492,23.848,11.247z M38.519,25.752c0,1.755-1.428,3.184-3.184,3.184c-1.756,0-3.184-1.428-3.184-3.184
		c0-1.756,1.428-3.184,3.184-3.184C37.091,22.569,38.519,23.997,38.519,25.752z M53.024,11.247c0,1.756-1.428,3.184-3.184,3.184
		c-1.755,0-3.184-1.428-3.184-3.184c0-1.755,1.428-3.184,3.184-3.184C51.596,8.064,53.024,9.492,53.024,11.247z"/>
	<path style="fill:#31D5C7;" d="M17.697,20.311l-2.476,2.476c-0.475,0.475-0.475,1.246,0,1.721c0.238,0.238,0.549,0.356,0.861,0.356
		c0.311,0,0.623-0.119,0.861-0.356l2.476-2.476c0.475-0.475,0.475-1.246,0-1.721C18.943,19.835,18.173,19.835,17.697,20.311z"/>
	<path style="fill:#31D5C7;" d="M37.441,17.089c0.312,0,0.623-0.119,0.861-0.356l2.476-2.476c0.475-0.475,0.475-1.246,0-1.721
		c-0.475-0.475-1.246-0.475-1.721,0l-2.476,2.476c-0.475,0.475-0.475,1.246,0,1.721C36.818,16.97,37.13,17.089,37.441,17.089z"/>
</g>
</svg>
