<?xml version="1.0" encoding="iso-8859-1"?>
<!-- Generator: Adobe Illustrator 21.0.0, SVG Export Plug-In . SVG Version: 6.00 Build 0)  -->
<svg version="1.1" id="Camada_1" xmlns="http://www.w3.org/2000/svg" xmlns:xlink="http://www.w3.org/1999/xlink" x="0px" y="0px"
	 viewBox="0 0 38.898 38.898" style="enable-background:new 0 0 38.898 38.898;" xml:space="preserve">
<g>
	<path style="fill:#03234C;" d="M28.344,8.652l0.039,0.289l-0.434,0.09l-0.058,0.614h0.519l0.692-0.067l0.355-0.422l-0.379-0.148
		L28.871,8.77l-0.312-0.504L28.41,7.555l-0.586,0.117L27.66,7.926v0.281l0.281,0.191L28.344,8.652z M28.344,8.652"/>
	<path style="fill:#03234C;" d="M27.848,8.891l0.031-0.387l-0.344-0.149l-0.48,0.11l-0.356,0.574v0.367h0.414L27.848,8.891z
		 M27.848,8.891"/>
	<path style="fill:#03234C;" d="M17.969,10.527l-0.106,0.27h-0.511v0.265h0.121c0,0,0.007,0.055,0.015,0.129l0.317-0.027L18,11.043
		l0.051-0.246l0.254-0.02l0.097-0.207l-0.23-0.047L17.969,10.527z M17.969,10.527"/>
	<path style="fill:#03234C;" d="M16.648,11.004l-0.019,0.262L17,11.234l0.039-0.261l-0.223-0.176L16.648,11.004z M16.648,11.004"/>
	<path style="fill:#03234C;" d="M38.895,19.25c-0.004-0.57-0.036-1.137-0.09-1.691c-0.18-1.852-0.621-3.629-1.285-5.297
		c-0.051-0.121-0.098-0.25-0.149-0.371c-0.883-2.09-2.129-3.993-3.648-5.637c-0.098-0.106-0.2-0.211-0.301-0.317
		c-0.289-0.296-0.582-0.589-0.891-0.867C29.074,1.922,24.48,0,19.449,0C14.375,0,9.746,1.957,6.281,5.152
		C5.473,5.898,4.73,6.711,4.059,7.578C1.516,10.867,0,14.984,0,19.449c0,10.727,8.727,19.449,19.449,19.449
		c7.547,0,14.094-4.32,17.321-10.613c0.687-1.344,1.226-2.777,1.585-4.281c0.094-0.383,0.172-0.766,0.243-1.156
		c0.195-1.102,0.3-2.239,0.3-3.399C38.898,19.383,38.895,19.316,38.895,19.25L38.895,19.25z M35.234,11.477l0.114-0.129
		c0.148,0.289,0.285,0.582,0.418,0.875l-0.184-0.004l-0.348,0.047V11.477z M32.422,8.082l0.004-0.871
		c0.304,0.324,0.601,0.66,0.883,1.004l-0.352,0.523l-1.223-0.011l-0.078-0.254L32.422,8.082z M8.961,5.922V5.891h0.391l0.031-0.133
		h0.64v0.277L9.84,6.277H8.961V5.922z M9.586,6.789c0,0,0.387-0.066,0.422-0.066c0.031,0,0,0.39,0,0.39L9.129,7.168L8.961,6.969
		L9.586,6.789z M36.473,14.512h-1.422l-0.867-0.645l-0.914,0.086v0.559h-0.29l-0.312-0.223l-1.578-0.402v-1.024l-2.004,0.157
		l-0.621,0.335h-0.797l-0.391-0.043l-0.965,0.54v1.007l-1.972,1.422l0.164,0.61h0.402l-0.105,0.578l-0.281,0.105l-0.016,1.512
		l1.703,1.945h0.746l0.043-0.121h1.336l0.383-0.355h0.758l0.414,0.414l1.129,0.121l-0.149,1.496l1.254,2.211l-0.66,1.262
		l0.043,0.593l0.519,0.516v1.43l0.68,0.914v1.187h0.59c-3.273,4.024-8.262,6.602-13.844,6.602c-9.844,0-17.847-8.008-17.847-17.852
		c0-2.476,0.507-4.84,1.421-6.984v-0.559l0.641-0.773c0.223-0.418,0.457-0.828,0.711-1.227l0.031,0.324l-0.742,0.903
		c-0.23,0.433-0.445,0.875-0.637,1.332v1.015l0.739,0.356v1.414l0.711,1.211l0.582,0.09l0.074-0.414l-0.684-1.055l-0.133-1.023
		h0.399l0.168,1.054l0.988,1.438l-0.258,0.465l0.629,0.961l1.559,0.382v-0.25l0.621,0.09l-0.059,0.442l0.492,0.089l0.754,0.207
		l1.067,1.219l1.367,0.102l0.133,1.113l-0.934,0.652l-0.043,0.993l-0.137,0.609l1.352,1.691l0.106,0.579
		c0,0,0.488,0.132,0.546,0.132c0.059,0,1.098,0.785,1.098,0.785v3.059l0.371,0.102l-0.254,1.41l0.625,0.832l-0.113,1.394l0.82,1.45
		l1.059,0.921L17.734,36l0.102-0.34L17.059,35l0.043-0.324l0.14-0.403l0.028-0.406l-0.528-0.015l-0.265-0.332l0.437-0.426
		l0.059-0.317l-0.489-0.14l0.028-0.297l0.699-0.106l1.062-0.507l0.356-0.653l1.113-1.426l-0.254-1.113l0.34-0.594l1.024,0.032
		l0.691-0.543l0.223-2.149l0.761-0.972l0.137-0.622l-0.699-0.226l-0.461-0.754l-1.57-0.016l-1.246-0.472l-0.059-0.891l-0.418-0.726
		l-1.125-0.016l-0.652-1.024l-0.579-0.285l-0.031,0.313l-1.051,0.062l-0.386-0.535l-1.098-0.222l-0.906,1.042l-1.422-0.238
		l-0.106-1.605l-1.039-0.18l0.418-0.785l-0.121-0.453L8.75,17.59l-0.859-0.106l-0.305-0.672l0.184-0.691l0.476-0.875l1.09-0.551
		h2.105l-0.007,0.641l0.757,0.355l-0.058-1.097l0.543-0.551l1.101-0.723l0.078-0.508l1.098-1.144l1.164-0.645l-0.101-0.086
		l0.789-0.742l0.289,0.075l0.133,0.167l0.3-0.332l0.075-0.035l-0.329-0.047l-0.335-0.109v-0.32l0.179-0.145h0.387l0.18,0.078
		L17.84,9.84l0.187-0.031V9.781l0.055,0.02l0.547-0.082l0.078-0.27l0.313,0.078V9.82l-0.29,0.2l0.043,0.316l0.989,0.305l0.004,0.011
		l0.226-0.019l0.016-0.43l-0.785-0.355L19.18,9.641l0.652-0.223l0.027-0.625l-0.683-0.414l-0.043-1.051l-0.934,0.457h-0.34
		l0.086-0.801l-1.269-0.3l-0.528,0.398v1.215l-0.945,0.297l-0.379,0.793L14.41,9.453V8.441l-0.887-0.125l-0.445-0.289l-0.18-0.656
		l1.59-0.93l0.782-0.238l0.078,0.524l0.433-0.02l0.031-0.266l0.454-0.062l0.007-0.094l-0.195-0.082l-0.043-0.277l0.559-0.047
		l0.336-0.352l0.019-0.023h0.004l0.102-0.106l1.172-0.148l0.519,0.441l-1.359,0.723l1.726,0.41l0.227-0.578h0.754l0.269-0.504
		l-0.535-0.137V4.969l-1.676-0.742l-1.156,0.132l-0.652,0.344l0.043,0.828L15.703,5.43l-0.105-0.461l0.656-0.594l-1.188-0.059
		l-0.339,0.106L14.578,4.82l0.445,0.075L14.934,5.34l-0.758,0.047L14.059,5.68l-1.098,0.031c0,0-0.027-0.621-0.074-0.621
		c-0.043,0,0.859-0.016,0.859-0.016l0.656-0.64l-0.359-0.176L13.57,4.719l-0.789-0.047L12.309,4.02h-1.008l-1.055,0.785h0.965
		l0.09,0.285l-0.25,0.23l1.066,0.032l0.164,0.386l-1.203-0.047L11.02,5.395L10.266,5.23L9.863,5.008L8.965,5.016
		c2.945-2.145,6.566-3.414,10.484-3.414c4.516,0,8.637,1.687,11.785,4.457l-0.211,0.378l-0.824,0.325l-0.347,0.375l0.078,0.441
		l0.425,0.059l0.258,0.64l0.731-0.297l0.121,0.856h-0.219l-0.601-0.09l-0.668,0.113l-0.645,0.914l-0.926,0.145l-0.133,0.789
		l0.391,0.094l-0.113,0.508l-0.918-0.184l-0.84,0.184l-0.176,0.464l0.145,0.985l0.492,0.23l0.828-0.004l0.559-0.05l0.171-0.446
		l0.876-1.133l0.574,0.118l0.566-0.512l0.106,0.398l1.394,0.942l-0.172,0.226l-0.629-0.031l0.243,0.34l0.386,0.086l0.453-0.188
		l-0.007-0.547l0.199-0.101l-0.16-0.172l-0.93-0.516l-0.246-0.691h0.773l0.246,0.246l0.668,0.574l0.028,0.692l0.687,0.734
		l0.258-1.004l0.477-0.262l0.089,0.825l0.469,0.511l0.93-0.015c0.18,0.461,0.34,0.933,0.48,1.414L36.473,14.512z M10.609,8.836
		l0.465-0.223l0.422,0.102l-0.144,0.566l-0.457,0.145L10.609,8.836z M13.09,10.172v0.367h-1.07l-0.399-0.109l0.102-0.258
		l0.511-0.211h0.7v0.211H13.09z M13.578,10.684v0.355l-0.266,0.172l-0.335,0.062v-0.589H13.578z M13.277,10.539v-0.422l0.368,0.332
		L13.277,10.539z M13.445,11.395v0.347l-0.254,0.254h-0.57l0.09-0.387l0.269-0.023l0.055-0.133L13.445,11.395z M12.031,10.684h0.59
		l-0.754,1.058l-0.312-0.168l0.066-0.445L12.031,10.684z M14.445,11.273v0.348h-0.566l-0.156-0.226v-0.321h0.047L14.445,11.273z
		 M13.922,10.797l0.164-0.168l0.273,0.168l-0.218,0.18L13.922,10.797z M36.762,15.41l0.058-0.062
		c0.024,0.097,0.047,0.199,0.071,0.304L36.762,15.41z M36.762,15.41"/>
	<path style="fill:#03234C;" d="M3.023,11.906v0.559c0.196-0.457,0.411-0.899,0.641-1.332L3.023,11.906z M3.023,11.906"/>
</g>
</svg>
