<svg id="Camada_1" data-name="Camada 1" xmlns="http://www.w3.org/2000/svg" viewBox="0 0 38.898 38.898">
  <defs>
    <style>
      .cls-1 {
        fill: #31d5c7;
      }
    </style>
  </defs>
  <title>idioma-ativo</title>
  <g>
    <path class="cls-1" d="M28.344,8.652l.039.289-.434.09-.058.614h.519l.692-.067.355-.422-.379-.148-.207-.238-.312-.5-.149-.711-.586.117-.164.254v.281l.281.191Zm0,0"/>
    <path class="cls-1" d="M27.848,8.891l.031-.387-.344-.149-.48.11-.356.574v.367h.414Zm0,0"/>
    <path class="cls-1" d="M17.969,10.527l-.106.27h-.511v.265h.121s.007.055.015.129l.317-.027.2-.121.051-.246.254-.02.1-.207-.23-.047Zm0,0"/>
    <path class="cls-1" d="M16.648,11l-.019.262L17,11.234l.039-.261-.223-.176Zm0,0"/>
    <path class="cls-1" d="M38.895,19.25c0-.57-.036-1.137-.09-1.691a19.372,19.372,0,0,0-1.285-5.3c-.051-.121-.1-.25-.149-.371a19.5,19.5,0,0,0-3.648-5.637c-.1-.106-.2-.211-.3-.317-.289-.3-.582-.589-.891-.867a19.408,19.408,0,0,0-26.25.082A19.777,19.777,0,0,0,4.059,7.578,19.441,19.441,0,1,0,36.77,28.285,19.2,19.2,0,0,0,38.355,24c.094-.383.172-.766.243-1.156a19.508,19.508,0,0,0,.3-3.4c0-.066,0-.133,0-.2Zm-3.661-7.773.114-.129c.148.289.285.582.418.875l-.184,0-.348.047Zm-2.812-3.4,0-.871c.3.324.6.66.883,1l-.352.523-1.223-.011-.078-.254ZM8.961,5.922V5.891h.391l.031-.133h.64v.277l-.183.242H8.961Zm.625.867s.387-.066.422-.066a1.641,1.641,0,0,1,0,.39l-.879.055-.168-.2Zm26.887,7.723H35.051l-.867-.645-.914.086v.559h-.29l-.312-.223-1.578-.4V12.863l-2,.157-.621.335h-.8l-.391-.043-.965.54v1.007L24.34,16.281l.164.61h.4l-.105.578-.281.105L24.5,19.086l1.7,1.945h.746L27,20.91h1.336l.383-.355h.758l.414.414,1.129.121-.149,1.5L32.121,24.8l-.66,1.262.043.593.519.516V28.6l.68.914V30.7h.59A17.844,17.844,0,0,1,3.023,12.465v-.559l.641-.773c.223-.418.457-.828.711-1.227l.031.324-.742.9c-.23.433-.445.875-.637,1.332V13.48l.739.356V15.25l.711,1.211.582.09.074-.414-.684-1.055-.133-1.023h.4l.168,1.054.988,1.438-.258.465.629.961,1.559.382v-.25l.621.09-.059.442.492.089.754.207,1.067,1.219,1.367.1.133,1.113-.934.652-.043.993-.137.609,1.352,1.691.106.579s.488.132.546.132,1.1.785,1.1.785v3.059l.371.1-.254,1.41.625.832-.113,1.394.82,1.45,1.059.921,1.062.02.1-.34L17.059,35l.043-.324.14-.4.028-.406-.528-.015-.265-.332.437-.426.059-.317-.489-.14.028-.3.7-.106,1.062-.507.356-.653,1.113-1.426-.254-1.113.34-.594,1.024.032.691-.543.223-2.149.761-.972.137-.622-.7-.226-.461-.754-1.57-.016-1.246-.472-.059-.891-.418-.726-1.125-.016-.652-1.024-.579-.285-.031.313-1.051.062-.386-.535-1.1-.222-.906,1.042L10.961,19.7l-.106-1.6-1.039-.18.418-.785-.121-.453L8.75,17.59l-.859-.106-.305-.672.184-.691.476-.875,1.09-.551h2.1l-.007.641.757.355-.058-1.1.543-.551,1.1-.723.078-.508,1.1-1.144,1.164-.645-.1-.086L16.8,10.2l.289.075.133.167.3-.332.075-.035-.329-.047-.335-.109v-.32l.179-.145H17.5l.18.078.156.313.187-.031V9.781l.055.02.547-.082.078-.27.313.078V9.82l-.29.2.043.316.989.3,0,.011.226-.019.016-.43-.785-.355-.043-.207.652-.223.027-.625-.683-.414-.043-1.051-.934.457h-.34l.086-.8-1.269-.3-.528.4V8.3l-.945.3-.379.793-.414.066V8.441l-.887-.125-.445-.289-.18-.656,1.59-.93L15.27,6.2l.078.524.433-.02.031-.266.454-.062.007-.094-.2-.082-.043-.277.559-.047.336-.352.019-.023h0l.1-.106,1.172-.148.519.441-1.359.723,1.726.41.227-.578h.754l.269-.5-.535-.137V4.969l-1.676-.742L17,4.359l-.652.344.043.828-.684-.1L15.6,4.969l.656-.594-1.188-.059-.339.106-.149.4.445.075-.089.445-.758.047-.117.293-1.1.031a2.8,2.8,0,0,0-.074-.621l.859-.016.656-.64-.359-.176-.473.461-.789-.047-.472-.652H11.3l-1.055.785h.965l.09.285-.25.23,1.066.032.164.386-1.2-.047-.058-.3-.754-.165-.4-.222-.9.008A17.807,17.807,0,0,1,31.234,6.059l-.211.378-.824.325-.347.375.078.441.425.059.258.64.731-.3.121.856h-.219l-.6-.09-.668.113-.645.914-.926.145-.133.789.391.094-.113.508-.918-.184-.84.184-.176.464.145.985.492.23.828,0,.559-.05.171-.446.876-1.133.574.118.566-.512.106.4,1.394.942-.172.226-.629-.031.243.34.386.086.453-.188-.007-.547.2-.1-.16-.172-.93-.516-.246-.691h.773l.246.246.668.574.028.692.687.734.258-1,.477-.262.089.825.469.511.93-.015q.27.691.48,1.414ZM10.609,8.836l.465-.223.422.1-.144.566-.457.145Zm2.481,1.336v.367H12.02l-.4-.109.1-.258.511-.211h.7v.211Zm.488.512v.355l-.266.172-.335.062v-.589Zm-.3-.145v-.422l.368.332Zm.168.856v.347L13.191,12h-.57l.09-.387.269-.023.055-.133Zm-1.414-.711h.59l-.754,1.058-.312-.168.066-.445Zm2.414.589v.348h-.566l-.156-.226v-.321h.047Zm-.523-.476.164-.168.273.168-.218.18Zm22.84,4.613.058-.062c.024.1.047.2.071.3Zm0,0"/>
    <path class="cls-1" d="M3.023,11.906v.559c.2-.457.411-.9.641-1.332Zm0,0"/>
  </g>
</svg>
