<?xml version="1.0" encoding="utf-8"?>
<!-- Generator: Adobe Illustrator 18.1.1, SVG Export Plug-In . SVG Version: 6.00 Build 0)  -->
<svg version="1.1" id="Camada_1" xmlns="http://www.w3.org/2000/svg" xmlns:xlink="http://www.w3.org/1999/xlink" x="0px" y="0px"
	 viewBox="0 0 37.1 53" enable-background="new 0 0 37.1 53" xml:space="preserve">
<path fill="#32D6C8" d="M18.5,5.5c8.1,0,12.4,3.5,12.9,10.4c0.1,0.9-0.1,2-0.4,3.3c-0.1,0.6-0.7,1.7-1.7,3.3c0,0.1-0.3,0.4-0.7,1
	l-1.3,1.8c-0.4,0.6-0.7,0.9-0.7,1c-3.1,4.2-5.1,7.9-5.9,11.2h-4.3c-0.8-3.2-2.8-7-5.9-11.2c-0.1-0.1-0.4-0.5-0.8-1.2
	C9.1,24.4,8.8,24,8.8,24c0-0.1-0.3-0.4-0.7-1c-0.4-0.6-0.7-0.9-0.7-1l-0.2-0.3C7,21.4,6.9,21.2,6.8,21c-0.1-0.2-0.2-0.4-0.3-0.6
	C6.4,20.1,6.4,20,6.4,20c0,0-0.1-0.4-0.3-1c-0.2-0.6-0.3-0.9-0.3-1c0,0,0-0.4-0.1-1c-0.1-0.7-0.1-1,0-1.1C6.2,9,10.5,5.5,18.5,5.5
	 M25.7,42.2c0-2.1,0.4-4.1,1.3-6c0.4-0.9,0.9-1.8,1.5-2.7c0.6-0.9,1.1-1.7,1.5-2.3c0.4-0.6,1-1.4,1.8-2.4l1.7-2.2
	c2.6-3.6,3.9-7.3,3.6-11.1c-0.4-4.3-2.1-7.9-5-10.9C29,1.5,24.5,0,18.5,0C12.6,0,8.1,1.5,5,4.6c-3.1,3.1-4.7,6.7-5,10.9
	c-0.2,2.5,0.2,4.9,1.3,7.3c1.1,2.4,2.4,4.4,4,6c1.6,1.7,3,3.8,4.2,6.2c1.2,2.4,1.8,4.8,1.8,7.2H25.7z M11.1,50.9
	c2.5,1.4,4.9,2.2,7.4,2.1c2.5,0.1,5.1-0.6,7.5-2.1v-5.5H11.1V50.9z"/>
</svg>
