<svg xmlns="http://www.w3.org/2000/svg" viewBox="0 0 11 11"><g fill="#04244D"><path d="M8 0H3C1.4 0 0 1.4 0 3v5c0 1.7 1.4 3 3 3h5c1.7 0 3-1.4 3-3V3c0-1.6-1.4-3-3-3zm2 8c0 1.1-.9 2-2 2H3c-1.1 0-2-.9-2-2V3c0-1.1.9-2 2-2h5c1.1 0 2 .9 2 2v5zm0 0"/><path d="M5.5 2.7C3.9 2.7 2.7 4 2.7 5.5c0 1.6 1.3 2.8 2.8 2.8 1.6 0 2.8-1.3 2.8-2.8 0-1.6-1.2-2.8-2.8-2.8zm0 4.7c-1 0-1.9-.8-1.9-1.9 0-1 .8-1.9 1.9-1.9s1.9.8 1.9 1.9c0 1-.9 1.9-1.9 1.9zm0 0M8.5 1.8c-.2 0-.4.1-.6.2-.1.2-.2.4-.2.6 0 .2.1.4.2.5.1.1.3.2.5.2s.4-.1.5-.2c.1-.1.2-.3.2-.5.1-.2 0-.4-.1-.6-.2-.1-.4-.2-.5-.2zm0 0"/></g></svg>