<?xml version="1.0" encoding="utf-8"?>
<!-- Generator: Adobe Illustrator 21.0.0, SVG Export Plug-In . SVG Version: 6.00 Build 0)  -->
<svg version="1.1" id="Camada_1" xmlns="http://www.w3.org/2000/svg" xmlns:xlink="http://www.w3.org/1999/xlink" x="0px" y="0px"
	 viewBox="0 0 11.3 11.3" style="enable-background:new 0 0 11.3 11.3;" xml:space="preserve">
<style type="text/css">
	.st0{fill:#04244D;}
</style>
<g>
	<path class="st0" d="M0.2,3.7h2.3v7.5H0.2V3.7z M1.4,0c0.7,0,1.4,0.6,1.4,1.4c0,0.7-0.6,1.4-1.4,1.4C0.6,2.7,0,2.1,0,1.4
		C0,0.6,0.6,0,1.4,0"/>
	<path class="st0" d="M4,3.7h2.2v1h0c0.3-0.6,1.1-1.2,2.2-1.2c2.4,0,2.8,1.6,2.8,3.6v4.1H9V7.6c0-0.9,0-2-1.2-2
		c-1.2,0-1.4,1-1.4,1.9v3.7H4V3.7z"/>
</g>
</svg>
