<?xml version="1.0" encoding="utf-8"?>
<!-- Generator: Adobe Illustrator 21.0.0, SVG Export Plug-In . SVG Version: 6.00 Build 0)  -->
<svg version="1.1" id="Camada_1" xmlns="http://www.w3.org/2000/svg" xmlns:xlink="http://www.w3.org/1999/xlink" x="0px" y="0px"
	 viewBox="0 0 11.3 9.2" style="enable-background:new 0 0 11.3 9.2;" xml:space="preserve">
<style type="text/css">
	.st0{fill-rule:evenodd;clip-rule:evenodd;fill:#04244D;}
</style>
<path class="st0" d="M3.4,7.2c-1.2,0-2-0.9-2.2-1.6c0.3,0.1,0.7,0.1,1,0c0,0,0,0,0,0C1.6,5.4,1.1,5,0.8,4.5C0.6,4.1,0.4,3.7,0.4,3.2
	c0.3,0.2,0.7,0.3,1,0.3C1,3.2,0.7,2.7,0.5,2.1C0.4,1.5,0.5,1,0.8,0.4C2,1.9,3.6,2.7,5.6,2.9c0-0.1,0-0.2,0-0.3
	c-0.1-0.5,0-1.1,0.3-1.5c0.4-0.6,0.9-0.9,1.6-1c0.8-0.1,1.5,0.1,2,0.6c0,0,0.1,0,0.1,0c0.5-0.1,0.9-0.3,1.3-0.5c0,0,0,0,0,0
	c0,0,0,0,0,0c-0.2,0.5-0.5,1-1,1.3c0.4,0,0.9-0.2,1.3-0.3c0,0,0,0,0,0c-0.1,0.1-0.2,0.2-0.3,0.3c-0.2,0.3-0.5,0.6-0.8,0.8
	c0,0,0,0,0,0.1c0,0.3,0,0.7,0,1C10,4.1,9.8,4.8,9.5,5.4C9.2,6.1,8.8,6.7,8.3,7.3C7.4,8.2,6.3,8.8,5.1,9C4.6,9.1,4.2,9.2,3.8,9.2
	c-1.3,0-2.6-0.3-3.7-1c0,0,0,0-0.1,0c0.8,0.1,1.6,0,2.3-0.3C2.7,7.7,3.1,7.5,3.4,7.2z"/>
</svg>
